<?xml version="1.0" standalone="yes"?>

<svg version="1.1" viewBox="0.0 0.0 713.0472440944882 509.43307086614175" fill="none" stroke="none" stroke-linecap="square" stroke-miterlimit="10" xmlns="http://www.w3.org/2000/svg" xmlns:xlink="http://www.w3.org/1999/xlink"><clipPath id="p.0"><path d="m0 0l713.04724 0l0 509.43307l-713.04724 0l0 -509.43307z" clip-rule="nonzero"></path></clipPath><g clip-path="url(#p.0)"><path fill="#000000" fill-opacity="0.0" d="m0 0l713.04724 0l0 509.43307l-713.04724 0z" fill-rule="evenodd"></path><path fill="#000000" fill-opacity="0.0" d="m277.54257 320.2903l-1.9527588 -258.07874" fill-rule="evenodd"></path><path stroke="#000000" stroke-width="1.0" stroke-linejoin="round" stroke-linecap="butt" d="m277.54257 320.2903l-1.9527588 -258.07874" fill-rule="evenodd"></path><path fill="#000000" fill-opacity="0.0" d="m273.6281 59.97159l307.30707 -9.889763" fill-rule="evenodd"></path><path stroke="#000000" stroke-width="1.0" stroke-linejoin="round" stroke-linecap="butt" d="m273.6281 59.97159l307.30707 -9.889763" fill-rule="evenodd"></path><path fill="#000000" fill-opacity="0.0" d="m583.87225 47.83659l1.0078735 262.51968" fill-rule="evenodd"></path><path stroke="#000000" stroke-width="1.0" stroke-linejoin="round" stroke-linecap="butt" d="m583.87225 47.83659l1.0078735 262.51968" fill-rule="evenodd"></path><path fill="#000000" fill-opacity="0.0" d="m276.5661 146.0076l77.35431 -2.173233" fill-rule="evenodd"></path><path stroke="#000000" stroke-width="1.0" stroke-linejoin="round" stroke-linecap="butt" d="m276.5661 146.0076l77.35431 -2.173233" fill-rule="evenodd"></path><path fill="#000000" fill-opacity="0.0" d="m370.52158 163.65503l0.09448242 -82.67717" fill-rule="evenodd"></path><path stroke="#000000" stroke-width="1.0" stroke-linejoin="round" stroke-linecap="butt" d="m370.52158 163.65503l0.09448242 -82.67717" fill-rule="evenodd"></path><path fill="#000000" fill-opacity="0.0" d="m369.75735 80.432655l129.70078 -2.740158" fill-rule="evenodd"></path><path stroke="#000000" stroke-width="1.0" stroke-linejoin="round" stroke-linecap="butt" d="m369.75735 80.432655l129.70078 -2.740158" fill-rule="evenodd"></path><path fill="#000000" fill-opacity="0.0" d="m501.17615 76.51845l1.4173279 160.97638" fill-rule="evenodd"></path><path stroke="#000000" stroke-width="1.0" stroke-linejoin="round" stroke-linecap="butt" d="m501.17615 76.51845l1.4173279 160.97638" fill-rule="evenodd"></path><path fill="#000000" fill-opacity="0.0" d="m300.52835 490.1612l31.77951 -154.48819" fill-rule="evenodd"></path><path stroke="#000000" stroke-width="1.0" stroke-linejoin="round" stroke-linecap="butt" d="m300.52835 490.1612l31.77951 -154.48819" fill-rule="evenodd"></path><path fill="#000000" fill-opacity="0.0" d="m335.28296 293.81918l134.07874 1.1653442" fill-rule="evenodd"></path><path stroke="#000000" stroke-width="1.0" stroke-linejoin="round" stroke-linecap="butt" d="m335.28296 293.81918l134.07874 1.1653442" fill-rule="evenodd"></path><path fill="#000000" fill-opacity="0.0" d="m500.68365 336.8372l56.724426 143.43304" fill-rule="evenodd"></path><path stroke="#000000" stroke-width="1.0" stroke-linejoin="round" stroke-linecap="butt" d="m500.68365 336.8372l56.724426 143.43304" fill-rule="evenodd"></path><path fill="#000000" fill-opacity="0.0" d="m335.28296 293.81918l-90.07875 41.88974" fill-rule="evenodd"></path><path stroke="#000000" stroke-width="1.0" stroke-linejoin="round" stroke-linecap="butt" d="m335.28296 293.81918l-90.07875 41.88974" fill-rule="evenodd"></path><path fill="#000000" fill-opacity="0.0" d="m246.21843 335.7366l276.12598 -1.0393677" fill-rule="evenodd"></path><path stroke="#000000" stroke-width="1.0" stroke-linejoin="round" stroke-linecap="butt" d="m246.21843 335.7366l276.12598 -1.0393677" fill-rule="evenodd"></path><path fill="#000000" fill-opacity="0.0" d="m522.2174 334.63602l18.614197 -13.196838" fill-rule="evenodd"></path><path stroke="#000000" stroke-width="1.0" stroke-linejoin="round" stroke-linecap="butt" d="m522.2174 334.63602l18.614197 -13.196838" fill-rule="evenodd"></path><path fill="#000000" fill-opacity="0.0" d="m485.02582 318.08917l-34.236206 -57.385834" fill-rule="evenodd"></path><path stroke="#000000" stroke-width="1.0" stroke-linejoin="round" stroke-linecap="butt" d="m485.02582 318.08917l-34.236206 -57.385834" fill-rule="evenodd"></path><path fill="#000000" fill-opacity="0.0" d="m450.7722 260.72546l53.795288 -25.35434" fill-rule="evenodd"></path><path stroke="#000000" stroke-width="1.0" stroke-linejoin="round" stroke-linecap="butt" d="m450.7722 260.72546l53.795288 -25.35434" fill-rule="evenodd"></path><path fill="#000000" fill-opacity="0.0" d="m504.5981 235.35489l26.393707 43.055115" fill-rule="evenodd"></path><path stroke="#000000" stroke-width="1.0" stroke-linejoin="round" stroke-linecap="butt" d="m504.5981 235.35489l26.393707 43.055115" fill-rule="evenodd"></path><path fill="#000000" fill-opacity="0.0" d="m530.0463 277.2723l7.8425293 13.196869" fill-rule="evenodd"></path><path stroke="#000000" stroke-width="1.0" stroke-linejoin="round" stroke-linecap="butt" d="m530.0463 277.2723l7.8425293 13.196869" fill-rule="evenodd"></path><path fill="#000000" fill-opacity="0.0" d="m537.87524 290.50787l-50.834656 27.559082" fill-rule="evenodd"></path><path stroke="#000000" stroke-width="1.0" stroke-linejoin="round" stroke-linecap="butt" d="m537.87524 290.50787l-50.834656 27.559082" fill-rule="evenodd"></path><path fill="#000000" fill-opacity="0.0" d="m486.9873 318.08917l63.590515 1.1653442" fill-rule="evenodd"></path><path stroke="#000000" stroke-width="1.0" stroke-linejoin="round" stroke-linecap="butt" d="m486.9873 318.08917l63.590515 1.1653442" fill-rule="evenodd"></path><path fill="#000000" fill-opacity="0.0" d="m550.5951 319.18976l30.393738 -25.35434" fill-rule="evenodd"></path><path stroke="#000000" stroke-width="1.0" stroke-linejoin="round" stroke-linecap="butt" d="m550.5951 319.18976l30.393738 -25.35434" fill-rule="evenodd"></path><path fill="#000000" fill-opacity="0.0" d="m247.20341 35.701588l-248.62993 99.244095" fill-rule="evenodd"></path><path stroke="#000000" stroke-width="1.0" stroke-linejoin="round" stroke-linecap="butt" d="m247.20341 35.701588l-248.62993 99.244095" fill-rule="evenodd"></path><path fill="#000000" fill-opacity="0.0" d="m430.24887 334.58817l48.944885 172.03152" fill-rule="evenodd"></path><path stroke="#000000" stroke-width="1.0" stroke-linejoin="round" stroke-linecap="butt" d="m430.24887 334.58817l48.944885 172.03152" fill-rule="evenodd"></path><path fill="#000000" fill-opacity="0.0" d="m247.20341 35.577175l375.77948 -10.929132" fill-rule="evenodd"></path><path stroke="#000000" stroke-width="1.0" stroke-linejoin="round" stroke-linecap="butt" d="m247.20341 35.577175l375.77948 -10.929132" fill-rule="evenodd"></path><path fill="#000000" fill-opacity="0.0" d="m449.7957 -0.70341206l0.9133911 172.0315" fill-rule="evenodd"></path><path stroke="#000000" stroke-width="1.0" stroke-linejoin="round" stroke-linecap="butt" d="m449.7957 -0.70341206l0.9133911 172.0315" fill-rule="evenodd"></path><path fill="#efefef" d="m405.1573 160.33417l87.11813 0l0 13.196854l-87.11813 0z" fill-rule="evenodd"></path><path stroke="#cccccc" stroke-width="1.0" stroke-linejoin="round" stroke-linecap="butt" d="m405.1573 160.33417l87.11813 0l0 13.196854l-87.11813 0z" fill-rule="evenodd"></path><path fill="#000000" fill-opacity="0.0" d="m207.56635 112.36838l-208.37796 94.267715" fill-rule="evenodd"></path><path stroke="#000000" stroke-width="1.0" stroke-linejoin="round" stroke-linecap="butt" d="m207.56635 112.36838l-208.37796 94.267715" fill-rule="evenodd"></path><path fill="#000000" fill-opacity="0.0" d="m-1.3858777 205.57245l1.007874 183.05511" fill-rule="evenodd"></path><path stroke="#000000" stroke-width="1.0" stroke-linejoin="round" stroke-linecap="butt" d="m-1.3858777 205.57245l1.007874 183.05511" fill-rule="evenodd"></path><path fill="#000000" fill-opacity="0.0" d="m1.5435971 388.6789l201.6378 -120.25198" fill-rule="evenodd"></path><path stroke="#000000" stroke-width="1.0" stroke-linejoin="round" stroke-linecap="butt" d="m1.5435971 388.6789l201.6378 -120.25198" fill-rule="evenodd"></path><path fill="#000000" fill-opacity="0.0" d="m206.58136 111.25823l-1.6378021 98.4882" fill-rule="evenodd"></path><path stroke="#000000" stroke-width="1.0" stroke-linejoin="round" stroke-linecap="butt" d="m206.58136 111.25823l-1.6378021 98.4882" fill-rule="evenodd"></path><path fill="#000000" fill-opacity="0.0" d="m582.8788 457.01483l62.677124 -26.519684" fill-rule="evenodd"></path><path stroke="#000000" stroke-width="1.0" stroke-linejoin="round" stroke-linecap="butt" d="m582.8788 457.01483l62.677124 -26.519684" fill-rule="evenodd"></path><path fill="#000000" fill-opacity="0.0" d="m647.47156 430.54367l46.04724 28.692932" fill-rule="evenodd"></path><path stroke="#000000" stroke-width="1.0" stroke-linejoin="round" stroke-linecap="butt" d="m647.47156 430.54367l46.04724 28.692932" fill-rule="evenodd"></path><path fill="#000000" fill-opacity="0.0" d="m648.44806 429.4431l-10.803162 46.4252" fill-rule="evenodd"></path><path stroke="#000000" stroke-width="1.0" stroke-linejoin="round" stroke-linecap="butt" d="m648.44806 429.4431l-10.803162 46.4252" fill-rule="evenodd"></path><path fill="#000000" fill-opacity="0.0" d="m647.47156 432.19934l-0.50390625 -61.795288" fill-rule="evenodd"></path><path stroke="#000000" stroke-width="1.0" stroke-linejoin="round" stroke-linecap="butt" d="m647.47156 432.19934l-0.50390625 -61.795288" fill-rule="evenodd"></path><path fill="#000000" fill-opacity="0.0" d="m677.8447 340.64612l9.795227 -45.228363" fill-rule="evenodd"></path><path stroke="#000000" stroke-width="1.0" stroke-linejoin="round" stroke-linecap="butt" d="m677.8447 340.64612l9.795227 -45.228363" fill-rule="evenodd"></path><path fill="#000000" fill-opacity="0.0" d="m692.6025 310.3134l-9.921265 44.06299" fill-rule="evenodd"></path><path stroke="#000000" stroke-width="1.0" stroke-linejoin="round" stroke-linecap="butt" d="m692.6025 310.3134l-9.921265 44.06299" fill-rule="evenodd"></path><path fill="#d9d9d9" d="m578.9643 464.7234l0 0c0 -3.6441956 2.8484497 -6.598419 6.3622437 -6.598419l0 0c1.6873169 0 3.305603 0.6951904 4.4987183 1.9326477c1.1931763 1.2374268 1.8634644 2.9157715 1.8634644 4.6657715l0 0c0 3.644226 -2.8484497 6.598419 -6.3621826 6.598419l0 0c-3.513794 0 -6.3622437 -2.954193 -6.3622437 -6.598419z" fill-rule="evenodd"></path><path stroke="#000000" stroke-width="1.0" stroke-linejoin="round" stroke-linecap="butt" d="m578.9643 464.7234l0 0c0 -3.6441956 2.8484497 -6.598419 6.3622437 -6.598419l0 0c1.6873169 0 3.305603 0.6951904 4.4987183 1.9326477c1.1931763 1.2374268 1.8634644 2.9157715 1.8634644 4.6657715l0 0c0 3.644226 -2.8484497 6.598419 -6.3621826 6.598419l0 0c-3.513794 0 -6.3622437 -2.954193 -6.3622437 -6.598419z" fill-rule="evenodd"></path><path fill="#d9d9d9" d="m631.8307 482.37082l0 0c0 -3.6441956 2.8485107 -6.598419 6.3622437 -6.598419l0 0c1.6873779 0 3.305603 0.6951904 4.4987793 1.9326477c1.1931152 1.2374268 1.8634033 2.9157715 1.8634033 4.6657715l0 0c0 3.644226 -2.8484497 6.598419 -6.3621826 6.598419l0 0c-3.513733 0 -6.3622437 -2.954193 -6.3622437 -6.598419z" fill-rule="evenodd"></path><path stroke="#000000" stroke-width="1.0" stroke-linejoin="round" stroke-linecap="butt" d="m631.8307 482.37082l0 0c0 -3.6441956 2.8485107 -6.598419 6.3622437 -6.598419l0 0c1.6873779 0 3.305603 0.6951904 4.4987793 1.9326477c1.1931152 1.2374268 1.8634033 2.9157715 1.8634033 4.6657715l0 0c0 3.644226 -2.8484497 6.598419 -6.3621826 6.598419l0 0c-3.513733 0 -6.3622437 -2.954193 -6.3622437 -6.598419z" fill-rule="evenodd"></path><path fill="#d9d9d9" d="m687.703 468.03467l0 0c0 -3.6441956 2.8484497 -6.598419 6.3622437 -6.598419l0 0c1.6873169 0 3.305603 0.6951904 4.4987183 1.9326477c1.1931763 1.2374268 1.8634644 2.9157715 1.8634644 4.6657715l0 0c0 3.644226 -2.8484497 6.5984497 -6.3621826 6.5984497l0 0c-3.513794 0 -6.3622437 -2.9542236 -6.3622437 -6.5984497z" fill-rule="evenodd"></path><path stroke="#000000" stroke-width="1.0" stroke-linejoin="round" stroke-linecap="butt" d="m687.703 468.03467l0 0c0 -3.6441956 2.8484497 -6.598419 6.3622437 -6.598419l0 0c1.6873169 0 3.305603 0.6951904 4.4987183 1.9326477c1.1931763 1.2374268 1.8634644 2.9157715 1.8634644 4.6657715l0 0c0 3.644226 -2.8484497 6.5984497 -6.3621826 6.5984497l0 0c-3.513794 0 -6.3622437 -2.9542236 -6.3622437 -6.5984497z" fill-rule="evenodd"></path><path fill="#000000" fill-opacity="0.0" d="m148.30753 313.15552l-90.99213 54.614166" fill-rule="evenodd"></path><path stroke="#000000" stroke-width="1.0" stroke-linejoin="round" stroke-linecap="butt" d="m148.30753 313.15552l-90.99213 54.614166" fill-rule="evenodd"></path><path fill="#000000" fill-opacity="0.0" d="m57.330986 367.72018l0 9.8897705" fill-rule="evenodd"></path><path stroke="#000000" stroke-width="1.0" stroke-linejoin="round" stroke-linecap="butt" d="m57.330986 367.72018l0 9.8897705" fill-rule="evenodd"></path><path fill="#000000" fill-opacity="0.0" d="m57.330986 377.65402l91.30709 -55.40155" fill-rule="evenodd"></path><path stroke="#000000" stroke-width="1.0" stroke-linejoin="round" stroke-linecap="butt" d="m57.330986 377.65402l91.30709 -55.40155" fill-rule="evenodd"></path><path fill="#000000" fill-opacity="0.0" d="m538.85175 289.40732l40.15747 1.1653442" fill-rule="evenodd"></path><path stroke="#000000" stroke-width="1.0" stroke-linejoin="round" stroke-linecap="butt" d="m538.85175 289.40732l40.15747 1.1653442" fill-rule="evenodd"></path><path fill="#000000" fill-opacity="0.0" d="m0.074614175 382.0659l204.06299 -121.85828" fill-rule="evenodd"></path><path stroke="#434343" stroke-width="1.0" stroke-linejoin="round" stroke-linecap="butt" d="m0.074614175 382.0659l204.06299 -121.85828" fill-rule="evenodd"></path><path fill="#000000" fill-opacity="0.0" d="m0.56710577 209.42924l0.503937 173.19685" fill-rule="evenodd"></path><path stroke="#000000" stroke-width="1.0" stroke-linejoin="round" stroke-linecap="butt" d="m0.56710577 209.42924l0.503937 173.19685" fill-rule="evenodd"></path><path fill="#000000" fill-opacity="0.0" d="m0.074614175 208.32867l208.47244 -97.60631" fill-rule="evenodd"></path><path stroke="#000000" stroke-width="1.0" stroke-linejoin="round" stroke-linecap="butt" d="m0.074614175 208.32867l208.47244 -97.60631" fill-rule="evenodd"></path><path fill="#000000" fill-opacity="0.0" d="m205.60487 113.46895l-2.2047272 97.16536" fill-rule="evenodd"></path><path stroke="#000000" stroke-width="1.0" stroke-linejoin="round" stroke-linecap="butt" d="m205.60487 113.46895l-2.2047272 97.16536" fill-rule="evenodd"></path><path fill="#000000" fill-opacity="0.0" d="m353.38626 143.79688l0.50393677 104.72441" fill-rule="evenodd"></path><path stroke="#000000" stroke-width="1.0" stroke-linejoin="round" stroke-linecap="butt" d="m353.38626 143.79688l0.50393677 104.72441" fill-rule="evenodd"></path><path fill="#000000" fill-opacity="0.0" d="m354.37125 249.14552l119.40158 -0.56692505" fill-rule="evenodd"></path><path stroke="#000000" stroke-width="1.0" stroke-linejoin="round" stroke-linecap="butt" d="m354.37125 249.14552l119.40158 -0.56692505" fill-rule="evenodd"></path><path fill="#000000" fill-opacity="0.0" d="m512.9195 248.59045l24.440979 -0.56692505" fill-rule="evenodd"></path><path stroke="#000000" stroke-width="1.0" stroke-linejoin="round" stroke-linecap="butt" d="m512.9195 248.59045l24.440979 -0.56692505" fill-rule="evenodd"></path><path fill="#000000" fill-opacity="0.0" d="m537.37427 247.41331l1.0078735 39.74803" fill-rule="evenodd"></path><path stroke="#000000" stroke-width="1.0" stroke-linejoin="round" stroke-linecap="butt" d="m537.37427 247.41331l1.0078735 39.74803" fill-rule="evenodd"></path><path fill="#000000" fill-opacity="0.0" d="m247.20341 33.490875l0 293.38583" fill-rule="evenodd"></path><path stroke="#000000" stroke-width="1.0" stroke-linejoin="round" stroke-linecap="butt" d="m247.20341 33.490875l0 293.38583" fill-rule="evenodd"></path><path fill="#000000" fill-opacity="0.0" d="m247.20341 326.3961l-216.8504 141.16537" fill-rule="evenodd"></path><path stroke="#000000" stroke-width="1.0" stroke-linejoin="round" stroke-linecap="butt" d="m247.20341 326.3961l-216.8504 141.16537" fill-rule="evenodd"></path><path fill="#000000" fill-opacity="0.0" d="m585.83374 311.4666l-23.559082 0" fill-rule="evenodd"></path><path stroke="#000000" stroke-width="1.0" stroke-linejoin="round" stroke-linecap="butt" d="m585.83374 311.4666l-23.559082 0" fill-rule="evenodd"></path><path fill="#000000" fill-opacity="0.0" d="m354.36276 163.65503l17.637787 0" fill-rule="evenodd"></path><path stroke="#000000" stroke-width="1.0" stroke-linejoin="round" stroke-linecap="butt" d="m354.36276 163.65503l17.637787 0" fill-rule="evenodd"></path><path fill="#000000" fill-opacity="0.0" d="m679.76373 332.37268l-24.566956 -11.149597" fill-rule="evenodd"></path><path stroke="#000000" stroke-width="1.0" stroke-linejoin="round" stroke-linecap="butt" d="m679.76373 332.37268l-24.566956 -11.149597" fill-rule="evenodd"></path><path fill="#000000" fill-opacity="0.0" d="m644.04114 363.25568l0 11.590546" fill-rule="evenodd"></path><path stroke="#000000" stroke-width="1.0" stroke-linejoin="round" stroke-linecap="butt" d="m644.04114 363.25568l0 11.590546" fill-rule="evenodd"></path><path fill="#000000" fill-opacity="0.0" d="m648.94055 362.15512l0 12.629913" fill-rule="evenodd"></path><path stroke="#000000" stroke-width="1.0" stroke-linejoin="round" stroke-linecap="butt" d="m648.94055 362.15512l0 12.629913" fill-rule="evenodd"></path><path fill="#000000" fill-opacity="0.0" d="m615.1964 350.07275l4.881897 -19.905518" fill-rule="evenodd"></path><path stroke="#000000" stroke-width="1.0" stroke-linejoin="round" stroke-linecap="butt" d="m615.1964 350.07275l4.881897 -19.905518" fill-rule="evenodd"></path><path fill="#000000" fill-opacity="0.0" d="m651.87854 321.8933l-34.236267 9.417328" fill-rule="evenodd"></path><path stroke="#000000" stroke-width="1.0" stroke-linejoin="round" stroke-linecap="butt" d="m651.87854 321.8933l-34.236267 9.417328" fill-rule="evenodd"></path><path fill="#000000" fill-opacity="0.0" d="m617.1324 362.15512l22.015747 4.9448853" fill-rule="evenodd"></path><path stroke="#000000" stroke-width="1.0" stroke-linejoin="round" stroke-linecap="butt" d="m617.1324 362.15512l22.015747 4.9448853" fill-rule="evenodd"></path><path fill="#000000" fill-opacity="0.0" d="m639.17566 366.8445l36.188965 -3.9055176" fill-rule="evenodd"></path><path stroke="#000000" stroke-width="1.0" stroke-linejoin="round" stroke-linecap="butt" d="m639.17566 366.8445l36.188965 -3.9055176" fill-rule="evenodd"></path><path fill="#000000" fill-opacity="0.0" d="m680.69775 258.73007l28.220459 48.59842" fill-rule="evenodd"></path><path stroke="#000000" stroke-width="1.0" stroke-linejoin="round" stroke-linecap="butt" d="m680.69775 258.73007l28.220459 48.59842" fill-rule="evenodd"></path><path fill="#000000" fill-opacity="0.0" d="m679.76373 261.7734l6.834656 33.102356" fill-rule="evenodd"></path><path stroke="#000000" stroke-width="1.0" stroke-linejoin="round" stroke-linecap="butt" d="m679.76373 261.7734l6.834656 33.102356" fill-rule="evenodd"></path><path fill="#000000" fill-opacity="0.0" d="m707.68286 307.87778l-14.897583 2.7401733" fill-rule="evenodd"></path><path stroke="#000000" stroke-width="1.0" stroke-linejoin="round" stroke-linecap="butt" d="m707.68286 307.87778l-14.897583 2.7401733" fill-rule="evenodd"></path><path fill="#000000" fill-opacity="0.0" d="m165.16113 216.37697c0.6480255 -6.585907 0.97650146 -13.222061 0.97650146 -19.848343" fill-rule="evenodd"></path><path stroke="#000000" stroke-width="1.0" stroke-linejoin="round" stroke-linecap="butt" d="m165.16113 216.37697c0.6480255 -6.585907 0.97650146 -13.222061 0.97650146 -19.848343" fill-rule="evenodd"></path><path fill="#000000" fill-opacity="0.0" d="m148.19582 312.82666c0 41.194183 -0.510025 82.3768 -0.510025 123.570984" fill-rule="evenodd"></path><path stroke="#000000" stroke-width="1.0" stroke-linejoin="round" stroke-linecap="butt" d="m148.19582 312.82666c0 41.194183 -0.510025 82.3768 -0.510025 123.570984" fill-rule="evenodd"></path><path fill="#000000" fill-opacity="0.0" d="m179.51138 333.87042c-3.2242126 37.582184 -5.867508 75.30347 -5.867508 113.04062" fill-rule="evenodd"></path><path stroke="#000000" stroke-width="1.0" stroke-linejoin="round" stroke-linecap="butt" d="m179.51138 333.87042c-3.2242126 37.582184 -5.867508 75.30347 -5.867508 113.04062" fill-rule="evenodd"></path><path fill="#000000" fill-opacity="0.0" d="m181.4728 335.50693c2.5538483 37.330505 12.7200165 73.96399 12.7200165 111.40527" fill-rule="evenodd"></path><path stroke="#000000" stroke-width="1.0" stroke-linejoin="round" stroke-linecap="butt" d="m181.4728 335.50693c2.5538483 37.330505 12.7200165 73.96399 12.7200165 111.40527" fill-rule="evenodd"></path><path fill="#000000" fill-opacity="0.0" d="m209.85898 312.93085c0 40.89978 -1.3316498 84.252045 11.743515 121.84247" fill-rule="evenodd"></path><path stroke="#000000" stroke-width="1.0" stroke-linejoin="round" stroke-linecap="butt" d="m209.85898 312.93085c0 40.89978 -1.3316498 84.252045 11.743515 121.84247" fill-rule="evenodd"></path><path fill="#000000" fill-opacity="0.0" d="m208.1862 206.64449c19.48883 24.181946 23.803268 61.832016 28.67575 94.98357" fill-rule="evenodd"></path><path stroke="#000000" stroke-width="1.0" stroke-linejoin="round" stroke-linecap="butt" d="m208.1862 206.64449c19.48883 24.181946 23.803268 61.832016 28.67575 94.98357" fill-rule="evenodd"></path><path fill="#000000" fill-opacity="0.0" d="m134.22719 211.74171c-9.631073 27.261124 -14.063812 58.02495 -13.751205 87.82497" fill-rule="evenodd"></path><path stroke="#000000" stroke-width="1.0" stroke-linejoin="round" stroke-linecap="butt" d="m134.22719 211.74171c-9.631073 27.261124 -14.063812 58.02495 -13.751205 87.82497" fill-rule="evenodd"></path><path fill="#000000" fill-opacity="0.0" d="m184.95393 216.27675c-0.57562256 -6.5947723 -1.4731293 -13.164154 -2.6901855 -19.647217" fill-rule="evenodd"></path><path stroke="#000000" stroke-width="1.0" stroke-linejoin="round" stroke-linecap="butt" d="m184.95393 216.27675c-0.57562256 -6.5947723 -1.4731293 -13.164154 -2.6901855 -19.647217" fill-rule="evenodd"></path><path fill="#000000" fill-opacity="0.0" d="m157.8247 215.9277c8.290634 10.532639 30.004211 10.222595 33.277557 -4.833252" fill-rule="evenodd"></path><path stroke="#000000" stroke-width="1.0" stroke-linejoin="round" stroke-linecap="butt" d="m157.8247 215.9277c8.290634 10.532639 30.004211 10.222595 33.277557 -4.833252" fill-rule="evenodd"></path><path fill="#000000" fill-opacity="0.0" d="m197.62311 446.35828c8.765625 -3.4161682 17.395065 -7.495331 25.448547 -12.680359" fill-rule="evenodd"></path><path stroke="#000000" stroke-width="1.0" stroke-linejoin="round" stroke-linecap="butt" d="m197.62311 446.35828c8.765625 -3.4161682 17.395065 -7.495331 25.448547 -12.680359" fill-rule="evenodd"></path><path fill="#000000" fill-opacity="0.0" d="m173.64421 445.25778c-8.983017 -0.96221924 -17.642258 -4.289276 -26.425049 -6.6224976" fill-rule="evenodd"></path><path stroke="#000000" stroke-width="1.0" stroke-linejoin="round" stroke-linecap="butt" d="m173.64421 445.25778c-8.983017 -0.96221924 -17.642258 -4.289276 -26.425049 -6.6224976" fill-rule="evenodd"></path><path fill="#000000" fill-opacity="0.0" d="m166.29968 449.4009c0 11.591675 -25.742783 19.287598 -31.317749 9.347046c-3.9698486 -7.0784607 19.733887 -16.121948 21.851654 -8.18457" fill-rule="evenodd"></path><path stroke="#000000" stroke-width="1.0" stroke-linejoin="round" stroke-linecap="butt" d="m166.29968 449.4009c0 11.591675 -25.742783 19.287598 -31.317749 9.347046c-3.9698486 -7.0784607 19.733887 -16.121948 21.851654 -8.18457" fill-rule="evenodd"></path><path fill="#000000" fill-opacity="0.0" d="m204.90033 442.90012c-1.8022919 8.091064 -17.125214 22.388123 -8.047913 23.675781c12.60849 1.7885742 29.111588 -19.32196 21.445572 -28.486115" fill-rule="evenodd"></path><path stroke="#000000" stroke-width="1.0" stroke-linejoin="round" stroke-linecap="butt" d="m204.90033 442.90012c-1.8022919 8.091064 -17.125214 22.388123 -8.047913 23.675781c12.60849 1.7885742 29.111588 -19.32196 21.445572 -28.486115" fill-rule="evenodd"></path><path fill="#ffffff" d="m150.26761 168.80357l0 0c1.4959412 -15.507462 14.024918 -26.696808 27.984238 -24.992126l0 0c6.7035065 0.8186188 12.847076 4.5620117 17.079193 10.406647c4.232132 5.844635 6.206131 13.311768 5.487747 20.758713l0 0c-1.4959564 15.507462 -14.024933 26.696808 -27.984253 24.992126l0 0c-13.95932 -1.7046967 -24.062881 -15.657898 -22.566925 -31.16536z" fill-rule="evenodd"></path><path stroke="#000000" stroke-width="1.0" stroke-linejoin="round" stroke-linecap="butt" d="m150.26761 168.80357l0 0c1.4959412 -15.507462 14.024918 -26.696808 27.984238 -24.992126l0 0c6.7035065 0.8186188 12.847076 4.5620117 17.079193 10.406647c4.232132 5.844635 6.206131 13.311768 5.487747 20.758713l0 0c-1.4959564 15.507462 -14.024933 26.696808 -27.984253 24.992126l0 0c-13.95932 -1.7046967 -24.062881 -15.657898 -22.566925 -31.16536z" fill-rule="evenodd"></path><path fill="#000000" fill-opacity="0.0" d="m133.35298 214.25208c7.3584747 0 16.075043 3.3798828 22.02652 -1.7369385" fill-rule="evenodd"></path><path stroke="#000000" stroke-width="1.0" stroke-linejoin="round" stroke-linecap="butt" d="m133.35298 214.25208c7.3584747 0 16.075043 3.3798828 22.02652 -1.7369385" fill-rule="evenodd"></path><path fill="#000000" fill-opacity="0.0" d="m193.54749 211.063c5.655182 -0.07022095 11.413193 -0.66548157 16.874237 -2.6045685" fill-rule="evenodd"></path><path stroke="#000000" stroke-width="1.0" stroke-linejoin="round" stroke-linecap="butt" d="m193.54749 211.063c5.655182 -0.07022095 11.413193 -0.66548157 16.874237 -2.6045685" fill-rule="evenodd"></path><path fill="#000000" fill-opacity="0.0" d="m137.26744 304.07117c4.6686707 -18.526825 5.867401 -38.154083 5.867401 -57.423462" fill-rule="evenodd"></path><path stroke="#000000" stroke-width="1.0" stroke-linejoin="round" stroke-linecap="butt" d="m137.26744 304.07117c4.6686707 -18.526825 5.867401 -38.154083 5.867401 -57.423462" fill-rule="evenodd"></path><path fill="#000000" fill-opacity="0.0" d="m210.56375 252.1984c0 19.297516 0.55963135 39.41269 9.781738 57.42456" fill-rule="evenodd"></path><path stroke="#000000" stroke-width="1.0" stroke-linejoin="round" stroke-linecap="butt" d="m210.56375 252.1984c0 19.297516 0.55963135 39.41269 9.781738 57.42456" fill-rule="evenodd"></path><path fill="#000000" fill-opacity="0.0" d="m149.01082 313.38065c19.901535 0 39.801056 -0.5550842 59.70259 -0.5550842" fill-rule="evenodd"></path><path stroke="#000000" stroke-width="1.0" stroke-linejoin="round" stroke-linecap="butt" d="m149.01082 313.38065c19.901535 0 39.801056 -0.5550842 59.70259 -0.5550842" fill-rule="evenodd"></path><path fill="#000000" fill-opacity="0.0" d="m149.09575 318.72977c19.804367 -0.93829346 39.641586 -0.6312561 59.445953 -1.5695496" fill-rule="evenodd"></path><path stroke="#000000" stroke-width="1.0" stroke-linejoin="round" stroke-linecap="butt" d="m149.09575 318.72977c19.804367 -0.93829346 39.641586 -0.6312561 59.445953 -1.5695496" fill-rule="evenodd"></path><path fill="#000000" fill-opacity="0.0" d="m161.43349 166.75577l6.582672 1.1653442" fill-rule="evenodd"></path><path stroke="#000000" stroke-width="1.0" stroke-linejoin="round" stroke-linecap="butt" d="m161.43349 166.75577l6.582672 1.1653442" fill-rule="evenodd"></path><path fill="#000000" fill-opacity="0.0" d="m181.4728 169.2201l7.244095 -0.22047424" fill-rule="evenodd"></path><path stroke="#000000" stroke-width="1.0" stroke-linejoin="round" stroke-linecap="butt" d="m181.4728 169.2201l7.244095 -0.22047424" fill-rule="evenodd"></path><path fill="#000000" fill-opacity="0.0" d="m168.05664 184.63766l6.740158 2.9921265" fill-rule="evenodd"></path><path stroke="#000000" stroke-width="1.0" stroke-linejoin="round" stroke-linecap="butt" d="m168.05664 184.63766l6.740158 2.9921265" fill-rule="evenodd"></path><path fill="#000000" fill-opacity="0.0" d="m174.7817 187.9681l11.307098 -3.6535492" fill-rule="evenodd"></path><path stroke="#000000" stroke-width="1.0" stroke-linejoin="round" stroke-linecap="butt" d="m174.7817 187.9681l11.307098 -3.6535492" fill-rule="evenodd"></path><path fill="#000000" fill-opacity="0.0" d="m165.64514 168.79422l0 2.740158" fill-rule="evenodd"></path><path stroke="#000000" stroke-width="1.0" stroke-linejoin="round" stroke-linecap="butt" d="m165.64514 168.79422l0 2.740158" fill-rule="evenodd"></path><path fill="#000000" fill-opacity="0.0" d="m185.90097 170.6939l0 2.740158" fill-rule="evenodd"></path><path stroke="#000000" stroke-width="1.0" stroke-linejoin="round" stroke-linecap="butt" d="m185.90097 170.6939l0 2.740158" fill-rule="evenodd"></path><path fill="#ffffff" d="m144.32365 228.24902l62.67717 0l0 82.677155l-62.67717 0z" fill-rule="evenodd"></path><path stroke="#ffffff" stroke-width="1.0" stroke-linejoin="round" stroke-linecap="butt" d="m144.32365 228.24902l62.67717 0l0 82.677155l-62.67717 0z" fill-rule="evenodd"></path><path fill="#ffffff" d="m153.88734 323.0559l18.740158 1.1653442l-5.795273 115.433075l-18.740158 -1.1653442z" fill-rule="evenodd"></path><path stroke="#ffffff" stroke-width="1.0" stroke-linejoin="round" stroke-linecap="butt" d="m153.88734 323.0559l18.740158 1.1653442l-5.795273 115.433075l-18.740158 -1.1653442z" fill-rule="evenodd"></path><path fill="#ffffff" d="m182.7847 325.8413l18.551178 -3.3385925l15.496063 111.37009l-18.551178 3.338562z" fill-rule="evenodd"></path><path stroke="#ffffff" stroke-width="1.0" stroke-linejoin="round" stroke-linecap="butt" d="m182.7847 325.8413l18.551178 -3.3385925l15.496063 111.37009l-18.551178 3.338562z" fill-rule="evenodd"></path><path fill="#ffffff" d="m206.70453 230.54123l9.795273 -2.9921265l18.834656 80.28348l-9.795288 2.9921265z" fill-rule="evenodd"></path><path stroke="#ffffff" stroke-width="1.0" stroke-linejoin="round" stroke-linecap="butt" d="m206.70453 230.54123l9.795273 -2.9921265l18.834656 80.28348l-9.795288 2.9921265z" fill-rule="evenodd"></path><path fill="#ffffff" d="m135.13898 223.40172l8.850403 1.606308l-12.125992 84.06299l-8.850395 -1.6062927z" fill-rule="evenodd"></path><path stroke="#ffffff" stroke-width="1.0" stroke-linejoin="round" stroke-linecap="butt" d="m135.13898 223.40172l8.850403 1.606308l-12.125992 84.06299l-8.850395 -1.6062927z" fill-rule="evenodd"></path><path fill="#ffffff" d="m169.75064 205.40976l9.921265 0l0 13.669296l-9.921265 0z" fill-rule="evenodd"></path><path stroke="#ffffff" stroke-width="1.0" stroke-linejoin="round" stroke-linecap="butt" d="m169.75064 205.40976l9.921265 0l0 13.669296l-9.921265 0z" fill-rule="evenodd"></path><path fill="#ffffff" d="m136.04045 219.75548l20.0 0l0 10.204727l-20.0 0z" fill-rule="evenodd"></path><path stroke="#ffffff" stroke-width="1.0" stroke-linejoin="round" stroke-linecap="butt" d="m136.04045 219.75548l20.0 0l0 10.204727l-20.0 0z" fill-rule="evenodd"></path><path fill="#ffffff" d="m192.92322 216.30064l16.881882 0l0 10.204712l-16.881882 0z" fill-rule="evenodd"></path><path stroke="#ffffff" stroke-width="1.0" stroke-linejoin="round" stroke-linecap="butt" d="m192.92322 216.30064l16.881882 0l0 10.204712l-16.881882 0z" fill-rule="evenodd"></path><path fill="#ffffff" d="m140.83383 454.2652l13.259842 -2.5196838l0.50393677 4.0l-13.259842 2.5196838z" fill-rule="evenodd"></path><path stroke="#ffffff" stroke-width="1.0" stroke-linejoin="round" stroke-linecap="butt" d="m140.83383 454.2652l13.259842 -2.5196838l0.50393677 4.0l-13.259842 2.5196838z" fill-rule="evenodd"></path><path fill="#ffffff" d="m201.6953 456.2929l10.173233 -11.590546l3.0236206 3.433075l-10.173233 11.590546z" fill-rule="evenodd"></path><path stroke="#ffffff" stroke-width="1.0" stroke-linejoin="round" stroke-linecap="butt" d="m201.6953 456.2929l10.173233 -11.590546l3.0236206 3.433075l-10.173233 11.590546z" fill-rule="evenodd"></path><path fill="#000000" fill-opacity="0.0" d="m127.438194 308.26785l0 0" fill-rule="evenodd"></path><path stroke="#000000" stroke-width="1.0" stroke-linejoin="round" stroke-linecap="butt" d="m127.438194 308.26785l0 0" fill-rule="evenodd"></path><path fill="#000000" fill-opacity="0.0" d="m127.438194 308.26785l0 0" fill-rule="evenodd"></path><path stroke="#000000" stroke-width="1.0" stroke-linejoin="round" stroke-linecap="butt" d="m127.438194 308.26785l0 0" fill-rule="evenodd"></path><path fill="#000000" fill-opacity="0.0" d="m132.07993 312.54776l-15.307091 -3.5590515" fill-rule="evenodd"></path><path stroke="#000000" stroke-width="1.0" stroke-linejoin="round" stroke-linecap="butt" d="m132.07993 312.54776l-15.307091 -3.5590515" fill-rule="evenodd"></path><path fill="#000000" fill-opacity="0.0" d="m226.05605 318.67313l13.952759 -4.4409485" fill-rule="evenodd"></path><path stroke="#000000" stroke-width="1.0" stroke-linejoin="round" stroke-linecap="butt" d="m226.05605 318.67313l13.952759 -4.4409485" fill-rule="evenodd"></path><path fill="#000000" d="m156.8981 149.16628l5.0382996 -4.201828l-0.40118408 5.5905l5.2714233 -2.5209045l-2.4631195 3.2515259l7.902603 0.10934448l-6.9866943 2.6679993l1.9453735 1.8270569l-2.8612823 0.98706055l3.7802277 3.2147522l-6.414444 -1.2406006l0.4571991 2.9225006l-4.1814117 -1.3886719l-0.85990906 2.8131561l-2.634201 -1.4244843l-1.7743073 2.266388l-1.7758179 -1.5357666l-3.951294 3.3628235l-0.16957092 -3.2515259l-5.328964 -0.40161133l3.0959473 -2.3757477l-5.041321 -2.412506l5.957245 -1.243515l-4.1829376 -3.2147675l6.358429 -0.43836975l-1.3171082 -4.056671l6.128311 2.6679993l1.7743073 -4.349884z" fill-rule="evenodd"></path><path fill="#000000" d="m197.11029 149.85294l6.207901 -0.99035645l-2.7167206 4.700424l5.7022095 0.6128235l-3.541214 1.5369873l6.904175 4.337921l-7.2729797 -1.4041595l0.9384308 2.6507263l-2.933899 -0.6678772l1.9654236 4.8558044l-5.116974 -4.5338593l-0.8336334 2.8151855l-3.0904083 -3.4654694l-1.9457855 2.0120697l-1.7144928 -2.6664734l-2.518814 1.0404816l-0.9124756 -2.3035889l-4.8971252 0.8360596l1.2257385 -2.9500885l-4.5170593 -3.2134857l3.7274628 -0.4272461l-3.4137726 -4.827286l5.7652435 2.1041412l-2.3196106 -5.0719604l5.777649 3.0274506l0.5569 -4.2740173l4.26178 5.635391l3.3997955 -2.8725128z" fill-rule="evenodd"></path><path fill="#000000" d="m177.99228 142.94327l6.207901 -0.99035645l-2.7167053 4.700409l5.702194 0.6128235l-3.541214 1.5369873l6.904175 4.337921l-7.2729797 -1.4041595l0.9384308 2.6507263l-2.933899 -0.6678772l1.9654236 4.8558197l-5.116974 -4.5338593l-0.83361816 2.8151703l-3.0904083 -3.465454l-1.9458008 2.0120544l-1.7144775 -2.6664734l-2.5188293 1.0404816l-0.9124756 -2.3035736l-4.8971252 0.8360596l1.2257385 -2.9501038l-4.517044 -3.2134705l3.7274628 -0.4272461l-3.4137878 -4.827301l5.7652435 2.1041565l-2.3196106 -5.0719604l5.777649 3.0274353l0.5569 -4.274002l4.26178 5.635376l3.3997955 -2.8725128z" fill-rule="evenodd"></path><path fill="#000000" d="m166.52063 143.93857l6.207901 -0.9903717l-2.7167206 4.700424l5.7022095 0.6128235l-3.541214 1.5369873l6.904175 4.337921l-7.2729797 -1.4041595l0.9384308 2.6507263l-2.933899 -0.6678772l1.9654236 4.8558044l-5.116974 -4.533844l-0.8336334 2.8151703l-3.0904083 -3.4654694l-1.9457855 2.0120697l-1.7144928 -2.6664734l-2.518814 1.0404816l-0.9124756 -2.3035736l-4.8971252 0.8360596l1.2257385 -2.9501038l-4.5170593 -3.2134705l3.7274628 -0.4272461l-3.4137726 -4.827301l5.7652435 2.1041565l-2.3196106 -5.0719604l5.777649 3.0274353l0.5569 -4.274002l4.2617645 5.635376l3.3998108 -2.8725128z" fill-rule="evenodd"></path><path fill="#000000" d="m189.42996 138.25388l6.2079163 -0.9903717l-2.7167206 4.700424l5.702194 0.6128235l-3.5411987 1.5369873l6.9041595 4.337921l-7.2729797 -1.4041595l0.9384308 2.6507263l-2.933899 -0.6678772l1.9654388 4.8558044l-5.116974 -4.533844l-0.8336334 2.8151703l-3.0904083 -3.4654694l-1.9458008 2.0120697l-1.7144775 -2.6664734l-2.5188293 1.0404816l-0.9124603 -2.3035736l-4.8971252 0.8360596l1.2257385 -2.9501038l-4.5170593 -3.2134705l3.7274628 -0.4272461l-3.4137878 -4.827301l5.7652435 2.1041565l-2.3195953 -5.0719604l5.7776337 3.0274353l0.5569153 -4.274002l4.2617645 5.635376l3.3998108 -2.8725128z" fill-rule="evenodd"></path><path fill="#000000" fill-opacity="0.0" d="m621.4035 365.61475l-7.0551147 -15.149628" fill-rule="evenodd"></path><path stroke="#000000" stroke-width="1.0" stroke-linejoin="round" stroke-linecap="butt" d="m621.4035 365.61475l-7.0551147 -15.149628" fill-rule="evenodd"></path><path fill="#000000" fill-opacity="0.0" d="m661.1934 322.50104l-16.189026 0" fill-rule="evenodd"></path><path stroke="#000000" stroke-width="1.0" stroke-linejoin="round" stroke-linecap="butt" d="m661.1934 322.50104l-16.189026 0" fill-rule="evenodd"></path><path fill="#000000" fill-opacity="0.0" d="m680.5194 353.93912l-7.527527 9.637787" fill-rule="evenodd"></path><path stroke="#000000" stroke-width="1.0" stroke-linejoin="round" stroke-linecap="butt" d="m680.5194 353.93912l-7.527527 9.637787" fill-rule="evenodd"></path><path fill="#000000" fill-opacity="0.0" d="m688.8408 298.7861l3.1496582 9.102356" fill-rule="evenodd"></path><path stroke="#000000" stroke-width="1.0" stroke-linejoin="round" stroke-linecap="butt" d="m688.8408 298.7861l3.1496582 9.102356" fill-rule="evenodd"></path></g></svg>

